<?xml version="1.0" standalone="no"?><!DOCTYPE svg PUBLIC "-//W3C//DTD SVG 1.1//EN" "http://www.w3.org/Graphics/SVG/1.1/DTD/svg11.dtd"><svg t="1777987857393" class="icon" viewBox="0 0 1024 1024" version="1.1" xmlns="http://www.w3.org/2000/svg" p-id="1608" xmlns:xlink="http://www.w3.org/1999/xlink" width="200" height="200"><path d="M793.6 384a25.6 25.6 0 0 1 25.6 25.6v409.6a25.6 25.6 0 0 1-25.6 25.6H230.4a25.6 25.6 0 0 1-25.6-25.6V409.6a25.6 25.6 0 0 1 25.6-25.6h563.2z m-25.6 51.2H256v358.4h512V435.2z" p-id="1609"></path><path d="M512 153.6c112.9728 0 204.8 89.5488 204.8 200.3456V435.2h-51.2v-81.2544C665.6 271.7184 596.992 204.8 512 204.8s-153.6 66.9184-153.6 149.1456v80.7424h-51.2v-80.7424C307.2 243.1488 399.0272 153.6 512 153.6z" p-id="1610"></path><path d="M512 512a76.8 76.8 0 0 1 40.576 142.0288 46.08 46.08 0 1 1-81.152-0.0512A76.8 76.8 0 0 1 512 512z" p-id="1611"></path></svg>