<?xml version="1.0" standalone="no"?><!DOCTYPE svg PUBLIC "-//W3C//DTD SVG 1.1//EN" "http://www.w3.org/Graphics/SVG/1.1/DTD/svg11.dtd"><svg t="1777987819572" class="icon" viewBox="0 0 1024 1024" version="1.1" xmlns="http://www.w3.org/2000/svg" p-id="1239" xmlns:xlink="http://www.w3.org/1999/xlink" width="200" height="200"><path d="M793.6 384a25.6 25.6 0 0 1 25.6 25.6v409.6a25.6 25.6 0 0 1-25.6 25.6H230.4a25.6 25.6 0 0 1-25.6-25.6V409.6a25.6 25.6 0 0 1 25.6-25.6h563.2z m-25.6 51.2H256v358.4h512V435.2z" p-id="1240" fill="#515151"></path><path d="M500.8384 153.6768a206.4128 206.4128 0 0 1 154.8032 50.432 199.424 199.424 0 0 1 50.5088 68.5568 25.6 25.6 0 0 1-46.7968 20.8128 148.224 148.224 0 0 0-37.5552-50.944 155.2128 155.2128 0 0 0-116.48-37.8368c-84.6592 7.3984-147.2 80.0512-140.032 161.9712l2.56 29.0816a25.6 25.6 0 1 1-51.0208 4.4544l-2.56-29.0816c-9.6512-110.3872 74.0352-207.616 186.5728-217.4464z" p-id="1241" fill="#515151"></path><path d="M512 512a76.8 76.8 0 0 1 40.576 142.0288 46.08 46.08 0 1 1-81.152-0.0512A76.8 76.8 0 0 1 512 512z" p-id="1242" fill="#515151"></path></svg>