<?xml version="1.0" standalone="no"?><!DOCTYPE svg PUBLIC "-//W3C//DTD SVG 1.1//EN" "http://www.w3.org/Graphics/SVG/1.1/DTD/svg11.dtd"><svg t="1777988101775" class="icon" viewBox="0 0 1024 1024" version="1.1" xmlns="http://www.w3.org/2000/svg" p-id="4111" xmlns:xlink="http://www.w3.org/1999/xlink" width="200" height="200"><path d="M987.6053 725.547498l-0.159626-640.562681A85.096555 85.096555 0 0 0 902.460857 0H121.379517A85.112518 85.112518 0 0 0 36.3947 84.984817v853.886703a85.112518 85.112518 0 0 0 84.984817 84.984817h578.643803v0.143663zM697.549119 919.588714l-0.574653-146.99947c1.308932-30.600281 18.851816-50.314076 44.806984-50.314076a19.681871 19.681871 0 0 1 2.905191 0.143663l143.85484 0.86198zM121.379517 951.050974a12.243305 12.243305 0 0 1-12.179455-12.179454V84.984817a12.243305 12.243305 0 0 1 12.179455-12.179455h781.08134a12.259267 12.259267 0 0 1 12.195417 12.179455v566.671863l-166.633452-2.314576c-2.027249-0.143663-4.054497-0.143663-6.241372-0.143663-65.973375 0-115.441434 51.192019-117.75601 121.666843v0.877943l2.186875 179.38756H121.379517z m157.933842-643.467872l446.377802-1.101418c12.035791 0 32.771193-16.393578 32.771193-36.410663s-20.751364-36.3947-32.771193-36.3947l-446.377802 1.165269c-12.035791 0-32.771193 15.084645-32.771192 35.229431s20.591738 37.559969 32.771192 37.559969z m0 189.555729l446.377802-1.165269c12.035791 0 32.771193-16.249914 32.771193-36.3947s-20.751364-36.410663-32.771193-36.410662l-446.377802 1.165268c-12.035791 0-32.771193 15.084645-32.771192 35.245394s20.591738 37.559969 32.771192 37.559969z m249.575059 126.311956H277.429774c-17.111894 0-31.03127 16.377615-31.03127 36.3947s13.919376 36.410663 31.03127 36.410663h251.330943c17.111894 0 31.047233-16.393578 31.047233-36.410663s-13.935339-36.3947-30.90357-36.3947z m0 0" p-id="4112"></path></svg>